<?xml version="1.0" encoding="utf-8"?>
<!-- Generator: Adobe Illustrator 18.1.0, SVG Export Plug-In . SVG Version: 6.00 Build 0)  -->
<svg version="1.1" id="Layer_1" xmlns="http://www.w3.org/2000/svg" xmlns:xlink="http://www.w3.org/1999/xlink" x="0px" y="0px"
	 viewBox="-291 311 172 172" enable-background="new -291 311 172 172" xml:space="preserve">
<circle fill="#1BAF94" stroke="#168973" stroke-width="2" stroke-miterlimit="10" cx="-207.2" cy="395.5" r="69"/>
<g>
	<path fill="#FFFFFF" d="M-194.3,435.9c-1.7-1.3-1.9-3.2-1.9-3.2l-0.6-4.2h-20.7l-0.7,4.2c0,0-0.2,1.9-1.9,3.2
		c-1.7,1.3-3.1,2.4-1.7,2.6c1.3,0.2,13.7,0,14.7,0c0.9,0,13.3,0.2,14.7,0C-191.2,438.2-192.6,437.1-194.3,435.9z"/>
	<g>
		<rect x="-234.5" y="392" fill="#FFFFFF" width="8" height="15"/>
		<rect x="-217.5" y="385" fill="#FFFFFF" width="8" height="22"/>
		<rect x="-201.5" y="392" fill="#FFFFFF" width="8" height="15"/>
		<rect x="-186.5" y="385" fill="#FFFFFF" width="8" height="22"/>
		<polygon fill="#FFFFFF" points="-212.6,376.6 -196.4,386.9 -174.1,370.8 -176.4,367.5 -196.6,382.1 -212.4,372 -240.4,386.4 
			-238.6,389.9 		"/>
	</g>
	<path fill="#FFFFFF" d="M-161.2,358.5h-92c-2.2,0-4,1.8-4,4v58c0,2.2,1.8,4,4,4h92c2.2,0,4-1.8,4-4v-58
		C-157.2,360.3-159,358.5-161.2,358.5z M-163.2,412.5h-88v-48h88V412.5z"/>
</g>
</svg>
