<?xml version="1.0" encoding="utf-8"?>
<!-- Generator: Adobe Illustrator 17.0.0, SVG Export Plug-In . SVG Version: 6.00 Build 0)  -->
<!DOCTYPE svg PUBLIC "-//W3C//DTD SVG 1.1//EN" "http://www.w3.org/Graphics/SVG/1.1/DTD/svg11.dtd">
<svg version="1.1" id="Capa_1" xmlns="http://www.w3.org/2000/svg" xmlns:xlink="http://www.w3.org/1999/xlink" x="0px" y="0px"
	 width="200px" height="200px" viewBox="0 0 200 200" enable-background="new 0 0 200 200" xml:space="preserve">
<g>
	<path d="M196.862,62.591c-0.008-2.023-0.064-4.083-0.107-6.134c0.361-0.524,0.418-1.196-0.032-1.827
		c-0.277-10.336-1.056-20.891-2.865-30.955c0.04-0.573-0.057-1.134-0.29-1.657c-0.012-0.057-0.02-0.116-0.031-0.173
		c-0.117-0.608-0.576-0.986-1.113-1.136c-0.449-0.28-0.964-0.49-1.622-0.509c-2.292-0.066-4.582-0.155-6.872-0.231
		c-0.068-0.1-0.132-0.204-0.201-0.303c-0.455-0.65-1.362-0.342-1.498,0.246c-17.408-0.598-34.796-1.444-52.201-2.191
		c-1.47-0.063-3.004-0.152-4.566-0.249c-0.135-0.324-0.287-0.639-0.416-0.966c-0.413-1.044-2.091-0.635-1.719,0.474
		c0.042,0.126,0.1,0.241,0.143,0.366c-14.256-0.943-31.417-2.529-44.414,2.142c-0.309-0.367-0.609-0.74-0.918-1.106
		c-0.599-0.71-1.859,0.255-1.291,0.996c0.193,0.252,0.381,0.507,0.575,0.759c-0.601,0.248-1.211,0.482-1.791,0.762
		c-0.019,0.009-0.029,0.024-0.046,0.034c-0.516-0.053-1.045-0.011-1.542,0.259c-7.907,4.299-5.495,29.733-5.523,36.908
		c-0.024,6.085-1.476,26.667,5.217,32.194c-1.006,1.806-0.066,4.871,2.71,5.192c9.641,1.115,19.519,1.566,29.242,1.519
		c0.425,0.7,1.146,1.252,2.244,1.348c13.833,1.209,27.903,0.672,41.787,0.611c7.624,5.2,12.211,14.214,20.205,18.855
		c1.362,0.791,2.579,0.474,3.366-0.322c1.241,0.514,2.906-0.123,3.058-1.941c0.589-7.03,0.843-14.122,1.663-21.134
		c4.288,0.031,8.264-0.976,12.531-2.422c1.452-0.492,2.128-1.664,2.202-2.87C198.686,84.181,196.886,68.966,196.862,62.591z
		 M185.912,26.62c0.943,1.618,2.019,3.512,3.511,4.74c-0.089,2.663-0.11,5.337-0.033,8.018c-2.109-2.275-4.62-4.363-6.621-6.514
		c-1.809-1.946-4.017-4.079-5.839-6.342C179.924,26.591,182.917,26.619,185.912,26.62z M174.81,26.458
		c1.278,2.37,3.12,4.48,4.789,6.571c2.864,3.588,6.081,8.494,9.967,11.15c0.057,1.216,0.115,2.434,0.178,3.646
		c-7.467-7.167-14.956-14.309-22.331-21.592C169.879,26.331,172.344,26.39,174.81,26.458z M164.379,26.11
		c0.04,0.088,0.072,0.177,0.139,0.261c7.516,9.456,16.281,19.017,25.504,27.135c0.034,0.778,0.07,1.557,0.096,2.33
		c0.046,1.34,0.054,2.68,0.079,4.02c-3.941-5.6-9.297-10.322-14.183-15.042c-3.053-2.949-6.118-5.888-9.144-8.865
		c-1.838-1.808-3.657-3.637-5.472-5.468c0.006,0.006-1.549-1.473-2.678-2.513c0.063-0.053,0.1-0.137,0.042-0.217
		c-0.577-0.783-0.94-1.441-1.381-1.971C159.713,25.899,162.046,26.008,164.379,26.11z M77.179,89.049
		c0.084-2.949-0.831-5.958-1.171-8.891c-0.184-1.593-0.326-3.191-0.453-4.79c2.861,2.228,5.623,4.579,8.357,6.976
		c2.779,2.437,5.702,5.667,8.995,7.685C87.656,89.673,82.38,89.49,77.179,89.049z M96.391,90.299
		c0.087-0.381,0.023-0.803-0.254-1.099c-3.324-3.554-8.04-6.304-11.855-9.378c-2.881-2.322-5.795-4.673-8.886-6.732
		c-0.265-4.08-0.37-8.17-0.417-12.255c0.495,0.497,1.241,1.606,1.48,1.875c1.668,1.882,3.268,3.834,4.866,5.776
		c3.277,3.982,6.461,8.037,9.85,11.927c2.896,3.325,6.684,7.209,10.739,10.5C100.08,90.665,98.24,90.46,96.391,90.299z
		 M111.494,92.546c-3.272-3.605-8.9-6.466-12.275-9.15c-4.551-3.619-8.252-8.019-12.067-12.382
		c-3.108-3.556-6.949-9.714-11.535-11.461c-0.266-0.101-0.453-0.114-0.661-0.15c-0.003-0.435-0.018-0.871-0.02-1.305
		c-0.01-2.384,0.04-4.769,0.117-7.152c4.709,5.488,10.883,11.454,12.09,12.797c4.825,5.365,9.602,10.73,14.272,16.237
		c3.067,3.616,7.004,9.22,11.576,12.501C112.493,92.51,111.992,92.513,111.494,92.546z M119.72,92.186
		c-0.083-0.087-0.15-0.181-0.255-0.258c-10.849-7.884-18.977-18.689-28.27-28.267c-5.087-5.243-10.241-12.451-15.937-17.536
		c0.195-3.527,0.469-7.049,0.828-10.562c0.086-0.848,0.275-1.773,0.5-2.739c6.374,10.518,14.603,19.693,22.93,28.728
		c9.035,9.804,17.481,21.022,26.833,30.52C124.138,92.094,121.927,92.121,119.72,92.186z M130.834,92.057
		c-3.764-9.507-13.879-17.515-20.835-24.533C98.37,55.79,86.225,44.175,77.226,30.225c0.505-2.058,0.953-4.161,0.828-6.019
		c0.888,0.135,1.78,0.229,2.673,0.299c8.674,11.424,17.223,22.941,26.038,34.259c8.422,10.813,17.734,24.45,29.004,33.322
		C134.124,92.075,132.48,92.057,130.834,92.057z M142.045,92.123c-9.515-11.187-20.621-21.167-30.105-32.508
		c-9.666-11.557-19.014-23.374-28.614-34.985c2.266,0.049,4.544-0.05,6.824-0.181c7.999,14.701,19.046,27.724,30.038,40.227
		c7.871,8.953,16.243,18.741,25.271,27.47C144.32,92.137,143.185,92.133,142.045,92.123z M164.693,105.086
		c0.217-0.634,0.162-1.379-0.328-1.956c-11.613-13.669-26.23-25.295-38.634-38.332c-12.062-12.678-23.604-25.953-33.386-40.48
		c1.863-0.117,3.726-0.237,5.586-0.299c0.449-0.015,0.9-0.011,1.349-0.024c8.145,14.578,19.368,26.819,30.884,38.843
		c14.107,14.729,27.114,29.325,39.161,45.814c0.621,0.85,1.556,0.938,2.257,0.591c0.039,0.827,0.061,1.653,0.112,2.481
		C169.195,109.677,166.941,107.383,164.693,105.086z M171.454,105.354c-16.627-31.601-49.836-51.873-69.922-81.397
		c2.541-0.048,5.083-0.055,7.626-0.04c13.288,27.423,40.189,51.407,62.589,70.722c0.003,0.002,0.006,0.003,0.006,0.003
		C171.466,98.221,171.391,101.785,171.454,105.354z M175.258,87.982c-1.38-0.177-2.348,0.817-2.829,1.965
		c-20.21-22.515-44.11-40.652-61.035-66.001c5.017,0.059,10.032,0.21,15.042,0.384c5.378,10.888,13.681,20.005,22.1,28.809
		c6.416,6.71,12.713,13.249,18.535,20.489c3.273,4.069,7.278,11.449,11.497,14.5C177.49,88.166,176.392,88.127,175.258,87.982z
		 M189.261,80.685c-17.798-16.784-32.525-35.01-47.434-54.528c-0.871-1.141-2.832-0.074-1.973,1.153
		c7.119,10.167,14.273,20.351,21.9,30.146c7.337,9.421,15.863,21.723,26.878,27.182c-0.045,0.431-0.121,0.866-0.135,1.295
		c-2.211,0.751-4.354,1.418-6.539,1.818c0.093-0.209,0.167-0.429,0.196-0.665c0.062-0.503,0.125-1.006,0.186-1.509
		c0.11-0.887-0.564-1.382-1.307-1.455c-0.012-0.018-0.006-0.028-0.019-0.047c-2.337-3.752-1.865-3.029-5.315-6.588
		c-5.714-5.896-10.563-12.512-16.327-18.367c-10.682-10.849-22.813-21.385-30.47-34.707c0.375,0.013,0.751,0.023,1.125,0.037
		c6.315,0.234,12.631,0.566,18.947,0.9c4.062,10.007,11.546,18.614,18.462,26.748c6.749,7.937,13.955,17.709,22.59,23.699
		c0.004,0.003,0.009,0.003,0.013,0.006C189.9,77.424,189.595,79.054,189.261,80.685z M190.204,71.082
		c-12.008-15.829-29.854-27.313-38.849-45.607c0.95,0.05,1.902,0.095,2.852,0.145c-0.005,0.181,0.024,0.366,0.152,0.537
		c4.673,6.307,10.065,12.004,15.487,17.665c6.199,6.474,12.016,13.625,18.585,19.699c0.547,0.506,1.241,0.571,1.833,0.363
		C190.272,66.284,190.256,68.683,190.204,71.082z"/>
	<path d="M133.623,112.711c0.03-0.303,0.014-0.596,0.031-0.896c2.517-1.463,1.957-6.233-1.695-6.28
		c-20.955-0.272-42.864-4.235-63.846-1.581c-0.009-0.009-0.018-0.017-0.026-0.025c-0.416-0.397-0.914-0.202-1.128,0.169
		c-1.697,0.235-3.391,0.501-5.075,0.832c-0.013-0.082-0.012-0.159-0.031-0.243C58.7,90.925,66.39,74.392,59.784,61.308
		c-0.114-0.226-0.303-0.432-0.517-0.622c1.543-1.489,0.51-4.024-1.695-4.236c-6.933-0.664-14.458,1.054-21.522,1.052
		c-8.727-0.003-17.51-0.73-26.218,0.016c-2.542,0.218-3.054,2.932-1.646,4.289C5.232,65.394,4.945,72.183,4.4,76.373
		c-1.47,11.307-2.233,22.684-2.728,34.072c-0.468,10.787-0.541,21.655,0.233,32.429c0.286,3.996,0.084,10.677,4.405,12.653
		c1.11,0.508,2.434,0.223,3.222-0.551c0.229,0.198,0.493,0.358,0.835,0.407c7.225,1.05,14.553,1.115,21.806,2.012
		c-0.553,2.648-0.48,5.446-0.448,8.684c0.047,4.654-0.602,12.845,2.112,16.895c1.136,1.695,3.77,1.861,4.873,0.23
		c0.386,0.035,0.778,0.015,1.154-0.149c5.314-2.316,9.079-6.735,12.54-11.232c2.055-2.671,3.943-5.471,5.95-8.178
		c1.158-1.56,2.482-2.932,3.59-4.451c0.255,0.033,0.504,0.083,0.786,0.044c22.744-3.062,45.34,2.592,68.117,2.001
		c1.993-0.052,3.379-1.556,3.495-3.496c0.819-13.595-2.498-28.199,1.68-41.375C136.681,114.292,135.274,112.945,133.623,112.711z
		 M127.979,118.564c-1.154-1.227-2.428-2.364-3.547-3.452c-1.124-1.092-2.294-2.135-3.496-3.138
		c2.353,0.065,4.704,0.166,7.058,0.205C128.073,114.307,128.242,116.404,127.979,118.564z M116.679,111.85
		c1.986,1.679,3.883,3.448,5.677,5.338c1.613,1.699,3.019,3.734,4.672,5.445c-0.33,1.734-0.546,3.541-0.659,5.406
		c-2.09-2.167-4.363-4.205-6.43-6.285c-3.356-3.376-6.7-6.77-10.1-10.103C112.118,111.736,114.399,111.776,116.679,111.85z
		 M55.456,62.608c0.138,2.269-0.029,10.377-0.173,19.044c-2.807-2.651-5.789-5.145-8.513-7.896
		c-3.216-3.249-6.367-6.552-9.659-9.724C42.786,64.174,49.851,64.542,55.456,62.608z M35.922,64.001
		c-0.236,0.27-0.309,0.681,0.013,1.022c6.223,6.573,12.06,14.458,19.295,19.979c-0.03,2.042-0.057,4.078-0.076,6.039
		c-3.559-3.168-7.809-6.005-10.774-8.548c-6.742-5.78-12.441-11.699-17.654-18.796C29.793,63.828,32.861,63.943,35.922,64.001z
		 M10.367,151.219c-0.216,0.031-0.396,0.116-0.567,0.211c-1.109-3.962-1.656-8.219-1.923-12.573
		c1.407,3.715,3.749,6.868,6.497,9.733c0.537,0.56,1.206,1.27,1.951,2.005C14.322,150.729,12.332,150.935,10.367,151.219z
		 M21.586,150.427c-1.584-0.94-3.011-2.128-4.393-3.336c-3.027-2.645-5.799-5.892-7.303-9.655c-0.392-0.98-1.588-1.004-2.128-0.432
		c-0.148-3.582-0.085-7.211,0.032-10.813c6.719,9.631,15.65,17.3,24.71,24.827C28.905,150.631,25.25,150.405,21.586,150.427z
		 M39.402,177.386c-0.201-3.296-0.932-6.793-1.072-9.738c-0.029-0.605-0.044-1.209-0.067-1.814c0.845,1.156,1.753,2.269,2.695,3.347
		c0.71,0.813,1.826,2.253,3.062,3.434C42.581,174.284,41.071,175.887,39.402,177.386z M45.979,170.219
		c-0.935-0.739-1.831-1.539-2.691-2.343c-1.929-1.806-3.718-3.808-5.174-6.022c-0.038-1.139-0.077-2.278-0.127-3.417
		c-0.061-1.409-0.276-2.406-0.585-3.35c4.085,3.406,8.117,6.853,11.907,10.506C48.238,167.202,47.13,168.737,45.979,170.219z
		 M51.441,162.204c-14.212-13.602-32.289-23.378-43.515-39.872c0.182-4.097,0.409-8.116,0.52-11.887
		c0.001-0.035,0.004-0.069,0.005-0.104c5.421,7.642,11.817,14.52,18.435,21.22c8.665,8.774,17.499,18.75,27.243,26.292
		c0.039,0.03,0.086,0.039,0.126,0.066C53.239,159.29,52.317,160.769,51.441,162.204z M62.992,153.732
		c-0.697-0.827-1.79-1.319-2.83-0.897c-1.364,0.553-2.562,1.429-3.65,2.483c-5.78-8.225-14.716-14.747-22.041-21.528
		c-9.186-8.504-18.153-17.31-25.844-27.19c0.129-3.367,0.322-6.732,0.523-10.097c8.195,10.442,17.682,19.729,27.448,28.714
		c10.029,9.227,20.119,19.597,31.091,27.817C66.123,153.229,64.557,153.452,62.992,153.732z M72.432,152.56
		c-0.025-0.04-0.028-0.084-0.057-0.123c-7.898-10.608-20.266-18.557-30.404-26.909c-11.697-9.637-23.016-19.65-32.702-31.331
		c0.29-4.445,0.645-8.886,1.094-13.317c0.038-0.372,0.096-0.75,0.146-1.125c11.552,14.078,25.962,25.85,39.456,37.995
		c12.07,10.865,22.258,22.672,33.115,34.49C79.53,152.221,75.981,152.284,72.432,152.56z M87.904,152.312
		c-6.09-13.823-21.24-24.779-32.369-34.353c-15.022-12.922-30.198-25.376-43.973-39.664c-0.26-0.27-0.552-0.31-0.809-0.23
		c0.83-5.032,2.327-10.27,2.36-15.181c0-0.011-0.005-0.021-0.005-0.032c3.798,0.335,7.612,0.586,11.427,0.773
		c1.64,7.282,9.373,13.488,14.52,18.328c3.488,3.279,7.095,6.43,10.641,9.644c1.811,1.641,3.55,3.661,5.43,5.429
		c0.009,4.643,0.11,8.221,0.386,9.41c0.095,0.409,0.251,0.748,0.441,1.042C42.33,93.992,29.514,77.967,14.568,66.407
		c-0.364-0.282-0.89,0.06-0.657,0.506c8.542,16.318,26.237,30.196,39.143,43.06c14.033,13.988,27.855,30.059,43.237,42.746
		C93.494,152.549,90.699,152.4,87.904,152.312z M101.848,153.081c-11.649-15.925-28.82-29.247-43.057-42.801
		c-0.151-0.144-0.299-0.3-0.45-0.445c0.115,0.02,0.215,0.062,0.341,0.064c4.305,0.039,8.605,0.168,12.906,0.291
		c12.698,14.282,26.203,27.007,36.669,43.337C106.119,153.381,103.983,153.229,101.848,153.081z M112.411,153.786
		c-7.001-17.425-23.237-30.804-37.428-43.52c3.579,0.116,7.156,0.26,10.734,0.404c12.709,13.846,25.301,27.482,35.24,43.511
		C118.105,154.09,115.257,153.959,112.411,153.786z M125.784,154.265c-9.524-16.586-23.119-30.499-37.075-43.48
		c2.233,0.093,4.465,0.189,6.697,0.285c-0.029,0.277,0.041,0.559,0.286,0.781c6.427,5.829,12.036,12.262,17.216,19.22
		c3.754,5.042,6.648,12.52,11.414,16.544c1.094,0.924,2.534,0.037,2.305-1.342c-1.028-6.165-7.358-12.395-11.136-17.196
		c-5.122-6.509-10.829-12.749-17.352-17.892c2.65,0.112,5.3,0.21,7.95,0.316c3.54,3.846,7.075,7.695,10.552,11.598
		c3.064,3.439,6.011,7.581,9.641,10.535c0.144,7.123,1.082,14.523,1.141,20.66C126.876,154.296,126.331,154.268,125.784,154.265z"/>
</g>
</svg>
