<?xml version="1.0" encoding="utf-8"?>
<!-- Generator: Adobe Illustrator 18.1.0, SVG Export Plug-In . SVG Version: 6.00 Build 0)  -->
<svg version="1.1" id="Capa_1" xmlns="http://www.w3.org/2000/svg" xmlns:xlink="http://www.w3.org/1999/xlink" x="0px" y="0px"
	 viewBox="-361.7 315 160.6 164.2" enable-background="new -361.7 315 160.6 164.2" xml:space="preserve">
<circle fill="#1BAF94" stroke="#168973" stroke-width="2" stroke-miterlimit="10" cx="-281.1" cy="396.6" r="69"/>
<g>
	<path d="M-300.8,418.1l-31-16.9v-9.4l31-16.8v11l-21.6,10.4l21.6,10.8C-300.8,407.2-300.8,418.1-300.8,418.1z"/>
	<path d="M-295.5,424.1l20.6-54.9h6.5l-20.6,54.9H-295.5z"/>
	<path d="M-261.5,418.1v-10.9l21.6-10.7l-21.6-10.6V375l31,16.8v9.3L-261.5,418.1z"/>
</g>
<circle fill="#1BAF94" stroke="#168973" stroke-width="2" stroke-miterlimit="10" cx="-281.1" cy="396.6" r="69"/>
<g>
	<path fill="#FFFFFF" d="M-300.8,418.1l-31-16.9v-9.4l31-16.8v11l-21.6,10.4l21.6,10.8C-300.8,407.2-300.8,418.1-300.8,418.1z"/>
	<path fill="#FFFFFF" d="M-295.5,424.1l20.6-54.9h6.5l-20.6,54.9H-295.5z"/>
	<path fill="#FFFFFF" d="M-261.5,418.1v-10.9l21.6-10.7l-21.6-10.6V375l31,16.8v9.3L-261.5,418.1z"/>
</g>
</svg>
