<?xml version="1.0" encoding="utf-8"?>
<!-- Generator: Adobe Illustrator 18.1.0, SVG Export Plug-In . SVG Version: 6.00 Build 0)  -->
<svg version="1.1" id="Layer_1" xmlns="http://www.w3.org/2000/svg" xmlns:xlink="http://www.w3.org/1999/xlink" x="0px" y="0px"
	 viewBox="0 296.1 612 184.5" enable-background="new 0 296.1 612 184.5" xml:space="preserve">
<path fill="#FFFFFF" d="M29.4,443.3c-1.6,0.2-3.7,0.7-5.4,0.7c-12.1,0.9-24-6.8-24-12.3c0-2.1,0.9-2.8,3-2.8
	c7.5,0,9.1,6.8,15.6,11.2c3,0,6.5,0,9.8-0.9c45.7-14.9,77.6-56.8,107.4-93.4c13.3-17.7,13.5-20,14-20c5.1,0,4.4,8.2,3.5,11.2
	l-14.2,24.5c-22.4,36.3-29.4,53.3-31,59.4c0.7,0,4.2-5.1,6.1-7.9c26.1-32.4,47.3-69.2,83.2-94.1c4.2-2.1,8.6-2.3,9.1,4.7
	c2.8-3.7,3.5-4.7,4.4-4.7c4.2,0,3.7,8.4,2.3,10.9l-21.4,31.7c-30.5,49.6-32.1,59.6-32.1,61.7c0,2.8-4.2,0.5-4.2,0.5
	c-0.2-0.9-0.2-2.3-0.2-3.5c0-24.2,34.9-74.1,48-92.3c0-3,0.2-7.9-4.2-5.1c-33.3,22.8-55.7,60.6-81.3,92.5
	c-6.5,8.2-10.3,12.3-12.8,12.3c-2.3,0-2.8-1.6-2.8-3.5c0-13.5,9.1-34.9,21.2-55.7C97.4,399.3,69.4,430,29.4,443.3z"/>
<path fill="#FFFFFF" d="M240.4,396.9c0.9,0.7-1.6,5.8-4.2,8.9c-6.5,7.5-10.5,10.5-18.6,15.4c-7.5,4.2-27.3,14.2-31.2,0
	c-4.2-15.4,17.9-48,32.6-54.7c5.1-2.8,11.9-2.8,14.2,3.7c8.2,22.8-21.2,34.2-36.1,41.5c-1.4,0.2-2.3,0.7-3.7,0.9
	c-1.4,3.7-1.6,7.2-0.9,9.8c2.1,4.4,16.8-1.4,23.1-5.4c9.1-5.8,11.2-7.9,17.2-14C235.1,400,239,396.2,240.4,396.9z M195.9,407.2
	c15.6-6.5,37.5-17.7,33.3-34c-0.9-2.1-4.7,0-8.2,2.8C211.3,382.7,201.7,395.3,195.9,407.2z"/>
<path fill="#FFFFFF" d="M235.3,421.2c0,2.3,1.4,2.8,2.8,2.8c6.1,0,24.5-14.7,24.5-15.4c0.2-0.2,2.3-0.7,2.3,0.2
	c0.2,2.1-2.3,4.2-2.3,4.2c-18.6,16.3-24.5,15.4-25.2,15.4c-8.2,0.2-7.5-7.5-7.5-7.5c0-26.1,59.2-96.9,61.3-96.9
	c1.4-1.4,2.3-1.6,3-1.6c2.3,0,3,3.5,3,4.7c0,3-1.6,5.8-1.6,5.8l-24.2,29.6C236,409.5,235.3,418.4,235.3,421.2z"/>
<path fill="#FFFFFF" d="M293.1,365c1.6,0,2.3,0.7,2.3,2.1s-0.9,3-1.4,3.5c-27.3,37.5-29.6,48.2-29.6,48.2c-0.2,0.9-0.2,1.6-0.2,2.3
	c0,2.3,1.6,2.8,2.8,2.8c5.1,0.7,30.5-21.4,30.5-22.1c0.7-0.2,1.4-0.2,1.6-0.2s0.7,0.2,0.7,0.7c0,1.4-8.6,10.7-8.6,10.7
	c-17.7,15.6-24.5,15.6-25.2,15.6c-7.9-0.2-7.5-7.5-7.5-7.5c0-12.3,9.6-30.3,23.5-50.3C284.5,368,289.3,365,293.1,365z M293.5,353.8
	c0-4.7,5.4-12.3,9.1-12.3c1.4,0,2.3,0.9,2.3,3c0,5.4-5.4,12.3-8.9,12.3c-0.7,0-0.9,0-1.4-0.2C293.8,356.2,293.5,355.2,293.5,353.8z"
	/>
<path fill="#FFFFFF" d="M283.1,410c0-6.1,5.1-12.3,12.3-12.3c1.4,0,3.5,0.2,5.1,0.9c4.4-5.8,9.6-10.5,21.7-30.5
	c0.2-0.2-2.1-5.1,5.1-3.7c8.2,1.6,11.6,37,2.3,51c5.1,0.2,18.4-13.5,19.3-13.5c0.2,0,3.5-0.2,3.5,0.2c0,1.4-14.9,17.5-23.1,17.5
	c-0.7,0-1.6,0-2.3-0.2c-8.6,9.1-14.2,8.4-21.2,8.9c-8.2,0.2-16.3-3.5-20.7-10.9C283.8,414.6,283.1,412.5,283.1,410z M295.6,401.8
	c-3.7,0-8.2,4.7-8.2,9.6c0,0.7,0,0.9,0.2,1.6c2.3-3,6.1-7.2,9.6-10.9C296.6,402.1,296.3,401.8,295.6,401.8z M288.4,415.1
	c2.8,4.7,10.9,8.4,17.7,8.4c6.5,0,10.9-3,13.5-7.2c-6.5-3.5-13.3-8.4-18.6-12.3C296.6,408.6,291.9,412.5,288.4,415.1z M304,400.7
	c6.1,4.2,12.6,9.1,18.4,11.9c6.1-10.5,4.4-37.7,1.6-38.2c-5.8,8.4-11.9,17.7-18.4,24.5C305.2,399.7,304.7,400.4,304,400.7z"/>
<path fill="#FFFFFF" d="M334.1,410c0-6.1,5.1-12.3,12.3-12.3c1.4,0,3.5,0.2,5.1,0.9c4.4-5.8,9.6-10.5,21.7-30.5
	c0.2-0.2-2.1-5.1,5.1-3.7c8.2,1.6,11.6,37,2.3,51c5.1,0.2,13.3-3.7,14.2-3.7c0.2,0,0.2,0,0.2,0.2c0,1.4-6.8,7.5-14.9,7.5
	c-0.7,0-1.6,0-2.3-0.2c-8.6,9.1-14.2,8.4-21.2,8.9c-8.2,0.2-16.3-3.5-20.7-10.9C334.8,414.6,334.1,412.5,334.1,410z M346.7,401.8
	c-3.7,0-8.2,4.7-8.2,9.6c0,0.7,0,0.9,0.2,1.6c2.3-3,6.1-7.2,9.6-10.9C347.6,402.1,347.4,401.8,346.7,401.8z M339.4,415.1
	c2.8,4.7,10.9,8.4,17.7,8.4c6.5,0,10.9-3,13.5-7.2c-6.5-3.5-13.3-8.4-18.6-12.3C347.6,408.6,342.9,412.5,339.4,415.1z M355,400.7
	c6.1,4.2,12.6,9.1,18.4,11.9c6.1-10.5,4.4-37.7,1.6-38.2c-5.8,8.4-11.9,17.7-18.4,24.5C356.2,399.7,355.7,400.4,355,400.7z"/>
<path fill="#FFFFFF" d="M426.8,420.7c0,2.8,1.6,3,2.8,3c5.8,0,23.8-15.6,26.6-15.6c0.2,0,0.7,0.2,0.7,0.7c0,1.4-2.3,4.2-2.3,4.2
	c-19.8,17-25.6,14.9-25.6,15.4c-7.2,0-7.5-7.5-7.5-7.5c0-3.7,0.2-6.8,2.1-11.9v0.2c-7.5,7.2-22.1,16.1-22.1,16.1
	c-3.5,2.1-5.8,2.3-7.9,2.3c-6.5,0-6.8-6.1-6.8-9.1c0-11.9,12.3-27.3,12.3-27.3c19.1-23.5,29.4-25.2,29.4-25.2
	c6.8-3,13.5,2.1,11.9,11.6c3.5-5.1,7.9-12.6,15.6-12.6c2.1,0,2.3,0.9,2.3,2.1c0,1.4-0.7,3-0.9,3.5C428,410,426.8,418.1,426.8,420.7z
	 M436.3,381.1c0-3-0.2-7.9-3.7-7.9c-5.8,0-21.2,17.7-25.2,22.1c0,0-14.2,14.9-14.2,24.9c0,0.7,0,2.1,0.9,2.3s4.2-0.7,10.5-4.7
	C406.1,416.7,436.3,397.4,436.3,381.1z"/>
<g>
	<g>
		<path fill="#FFFFFF" d="M169.1,381.6c-7.7,14.9-18.9,36.3-15.1,53.6c3,14.7,17.9,24,30.8,29.4c36.6,15.4,81.5,6.5,117.9-5.1
			c21-6.8,41.9-15.1,63.8-17.9c24-3,46.8,3,70.1,8.2c41.5,9.6,84.1,10.3,125.3-1.4c16.5-4.7,35.2-11.9,44.7-27.3
			c7-11.4,7-26.3-4-34.7c-3-2.3-5.8,2.8-3,5.1c12.1,9.3,4.2,26.1-4.4,34.2c-8.2,7.7-19.1,12.3-29.6,15.6c-21,6.5-43.3,10-65.2,10.3
			c-24.2,0.5-47.3-3.7-70.6-9.1c-20.3-4.7-40.8-9.1-61.5-6.8c-20.5,2.3-39.8,9.3-59.2,15.8c-22.1,7.5-44.5,13.3-68,14.7
			c-21.2,1.4-43.8,0-62.4-10.7c-14.7-8.6-21.7-19.8-17.5-37.3c2.8-11.6,7.7-22.8,13-33.3C175.9,381.1,170.8,378.3,169.1,381.6
			L169.1,381.6z"/>
	</g>
</g>
</svg>
