<?xml version="1.0" encoding="utf-8"?>
<!-- Generator: Adobe Illustrator 18.1.0, SVG Export Plug-In . SVG Version: 6.00 Build 0)  -->
<svg version="1.1" id="Capa_1" xmlns="http://www.w3.org/2000/svg" xmlns:xlink="http://www.w3.org/1999/xlink" x="0px" y="0px"
	 viewBox="-350 320 154 154" enable-background="new -350 320 154 154" xml:space="preserve">
<circle fill="#1BAF94" stroke="#168973" stroke-width="2" stroke-miterlimit="10" cx="-273.2" cy="396.5" r="69"/>
<g>
	<path fill="#FFFFFF" d="M-239.9,375.2v-11h-77.2v60.6c0,0,0,11,11,11h68.9c0,0,8.3-0.2,8.3-11v-49.6H-239.9z M-306.1,430.3
		c-5.5,0-5.5-5.5-5.5-5.5v-55.1h66.2v55.1c0,2.5,0.8,4.3,1.9,5.5H-306.1z"/>
	<rect x="-306.1" y="380.7" fill="#FFFFFF" width="55.1" height="5.5"/>
	<rect x="-275.8" y="413.8" fill="#FFFFFF" width="19.3" height="5.5"/>
	<rect x="-275.8" y="402.8" fill="#FFFFFF" width="24.8" height="5.5"/>
	<rect x="-275.8" y="391.7" fill="#FFFFFF" width="24.8" height="5.5"/>
	<rect x="-306.1" y="391.7" fill="#FFFFFF" width="24.8" height="27.6"/>
</g>
</svg>
