<?xml version="1.0" encoding="utf-8"?>
<!-- Generator: Adobe Illustrator 17.0.0, SVG Export Plug-In . SVG Version: 6.00 Build 0)  -->
<!DOCTYPE svg PUBLIC "-//W3C//DTD SVG 1.1//EN" "http://www.w3.org/Graphics/SVG/1.1/DTD/svg11.dtd">
<svg version="1.1" id="Capa_1" xmlns="http://www.w3.org/2000/svg" xmlns:xlink="http://www.w3.org/1999/xlink" x="0px" y="0px"
	 width="200px" height="200px" viewBox="0 0 200 200" enable-background="new 0 0 200 200" xml:space="preserve">
<path d="M165.439,68.911c9.74-0.868,19.016-11.925,23.712-18.962c7.651-11.463,9.032-26.18-0.576-36.766
	c-8.465-9.327-20.857-12.634-30.683-3.939c-9.03,7.992-11.996,21.285-16.892,31.998C131.907,29.498,113.033,3.131,95.13,11.41
	c-2.72,1.258-13.981,8.733-21.405,15.524c-0.546-0.674-1.148-1.294-1.678-1.983c-0.634-0.824-2.058-0.047-1.429,0.835
	c0.582,0.817,1.23,1.552,1.831,2.346c-4.094,3.954-6.596,7.526-4.925,9.287c0.14,0.147,0.28,0.295,0.42,0.442
	c0.102,0.107,0.238,0.166,0.354,0.256c-0.664,0.14-1.323,0.307-1.971,0.529c-2.903,0.996-3.436,5.687,0,6.416
	c8.658,1.836,15.07,2.123,21.49,9.095c5.72,6.213,7.291,15.842,3.835,23.47c-4.759,10.501-16.754,13.394-26.86,10.063
	c-5.025-1.657-9.234-5.415-12.051-9.78c-2.063-3.197-1.234-6.767-3.909-9.432c-0.334-0.332-0.87-0.41-1.306-0.22
	c-1.062-0.969-2.65-1.382-4.026-0.515c-6.346,3.999-12.085,9.501-17.939,14.203c-5.834,4.687-11.427,10.005-15.4,16.383
	c-0.336,0.539-0.396,1.082-0.303,1.584c-1.389,0.742-2.145,2.844-0.813,4.231c6.321,6.581,12.497,13.3,18.833,19.869
	c4.006,4.153,7.772,8.695,12.323,12.15c-1.71,6.556-6.916,7.683-14.148,9.406c-5.986,1.425-11.329,3.366-16.149,7.256
	c-9.38,7.571-8.459,23.143-0.741,31.248c17.135,17.993,49.17,3.758,58.642-15.836c4.138,4.306,8.915,8.039,13.48,11.843
	c5.098,4.248,10.452,10.865,16.67,13.257c1.05,0.403,2.235-0.015,3.072-0.799c4.929,0.155,11.487-6.155,14.447-8.587
	c7.223-5.935,14.272-12.947,19.072-21.033c0.408-0.687,0.541-1.475,0.471-2.248c0.271-0.849,0.081-1.867-0.824-2.436
	c-2.053-1.291-3.778-3.344-5.827-4.76c-2.167-1.497-4.182-3.054-6.128-4.829c-3.076-2.805-5.358-6.18-6.469-10.199
	c-1.692-6.117,1.359-12.207,5.698-16.374c4.247-4.078,10.582-6.366,16.404-5.075c3.434,0.761,6.095,2.912,8.329,5.533
	c3.032,3.557,3.169,9.425,6.623,12.314c1.957,1.637,4.601,0.985,5.474-1.446c0.293-0.817,0.36-1.709,0.338-2.625
	c12.172-8.306,23.355-19.86,32.404-31.037c1.325-1.637,1.848-4.286,0-5.856C181.859,86.089,172.587,78.641,165.439,68.911z
	 M175.824,13.318c7.589,3.69,10.992,9.536,11.332,16.045c-2.699-2.7-5.877-5.081-8.611-7.501c-3.523-3.117-7.023-6.257-10.483-9.441
	C170.416,11.768,172.983,11.936,175.824,13.318z M164.801,13.936c3.593,3.631,7.246,7.201,10.924,10.746
	c3.531,3.403,6.934,7.608,10.966,10.543c-0.298,1.466-0.71,2.942-1.256,4.415c-4.267-2.781-8.193-7.575-11.473-10.7
	c-4.112-3.917-8.385-8.142-13.176-11.41C162.039,16.071,163.381,14.868,164.801,13.936z M158.892,19.967
	c5.723,4.472,10.587,10.212,15.544,15.39c2.258,2.359,5.475,6.532,9.045,8.619v0c-0.815,1.533-1.71,2.892-2.645,4.173
	c-3.621-4.695-8.606-8.483-12.903-12.526c-4.034-3.796-7.813-7.821-11.341-12.081C157.327,22.287,158.095,21.092,158.892,19.967z
	 M154.88,26.632c2.746,3.627,5.667,7.099,8.792,10.433c4.519,4.822,9.153,10.323,14.517,14.249c-1.498,1.57-3.091,2.976-4.82,4.201
	c-3.169-2.551-6.438-5.012-9.423-7.777c-4.378-4.055-8.76-8.109-13.564-11.652C151.761,33.03,153.246,29.754,154.88,26.632z
	 M145.376,46.125c1.174-1.799,2.39-4.306,3.692-7.147c4.743,3.959,9.019,8.436,13.372,12.816c1.956,1.967,4.104,4.394,6.469,6.495
	c-1.974,1.054-4.067,2.002-6.277,2.905c-4.063-3.382-8.582-6.4-12.738-9.631c-1.978-1.538-4.012-2.94-6.12-4.192
	C144.365,47.17,144.933,46.806,145.376,46.125z M73.013,37.748c1.575-1.007,3.076-2.115,4.554-3.256
	c1.847,2.12,3.734,4.192,5.688,6.183C79.974,39.016,76.476,37.919,73.013,37.748z M44.572,76.732
	c1.339,4.22,5.282,8.772,9.037,12.154c-3.051-2.633-6.028-5.312-8.864-8.08c-1.17-1.142-2.854,0.576-1.779,1.78
	c8.832,9.892,18.862,18.45,28.848,27.135c11.071,9.627,21.351,20.182,32.438,29.729c2.007,1.729,4.442-0.833,2.852-2.852
	c-14.166-17.998-34.569-31.56-52.341-46.721c1.913,1.619,3.711,2.918,4.975,3.605c8.781,4.768,18.675,4.224,26.826-0.223
	c4.327,5.71,9.071,11.027,14.503,15.728c3.687,3.191,8.283,7.112,13.14,8.953c-1.335,1.453-2.503,3.027-3.457,4.716
	c-5.63-5.883-13.513-10.747-19.772-15.697c-4.461-3.527-9.515-8.587-15.314-9.541c-0.826-0.136-1.472,1.013-0.611,1.449
	c6.002,3.038,11.383,8.587,16.444,12.94c5.418,4.659,11.066,11.202,17.507,14.648c-1.44,3.949-1.934,8.245-1.32,12.534
	c0.66,4.612,3.268,8.763,6.236,12.264c-9.486-8.816-21.733-16.22-30.839-23.025C64.833,114.591,49.26,101.81,36.069,83.587
	C39.028,81.472,42.012,79.269,44.572,76.732z M13.888,101.335c0.028-0.026,0.061-0.033,0.088-0.061
	c0.375-0.383,0.777-0.725,1.159-1.098c1.823,2.234,3.669,4.462,5.534,6.684C18.463,104.924,16.221,103.041,13.888,101.335z
	 M11.4,166c0.164-0.981,0.446-1.877,0.813-2.711c3.076,4.072,6.52,7.783,10.138,11.399c2.786,2.785,5.478,6.033,8.35,8.922
	C20.115,183.684,9.329,178.392,11.4,166z M35.401,183.195c-2.404-3.123-5.835-5.732-8.654-8.302
	c-4.731-4.311-9.314-8.74-13.21-13.833c0.469-0.619,1.014-1.181,1.597-1.715c6.553,4.538,11.904,10.37,17.429,16.118
	c1.863,1.939,4.182,4.671,6.781,6.909C38.049,182.7,36.74,182.994,35.401,183.195z M45.117,180.396
	c-4.279-3.357-8.663-6.528-12.69-10.367c-4.648-4.431-9.587-9.198-15.398-12.158c2.325-1.58,5.169-2.764,8.144-3.82
	c4.166,5.286,8.531,10.392,13.317,15.128c2.796,2.767,7.211,7.445,11.564,8.545C48.491,178.736,46.851,179.643,45.117,180.396z
	 M53.156,175.46c-0.005-0.005-0.004-0.013-0.009-0.018c-1.589-1.506-3.68-2.29-5.536-3.439c-2.865-1.774-5.41-4.054-7.898-6.31
	c-4.282-3.882-8.176-8.192-12.019-12.507c2.89-0.954,5.808-1.852,8.445-2.905c2.908,5.731,7.247,10.845,11.72,15.394
	c2.061,2.097,5.666,6.108,9.128,5.795C55.819,172.912,54.569,174.274,53.156,175.46z M58.925,168.798
	c-0.394-0.529-1.047-0.903-1.775-0.79c-0.157,0.025-2.461-1.807-2.894-2.103c-2.117-1.446-4.012-3.248-5.86-5.015
	c-3.647-3.486-7.117-7.382-9.712-11.739c1.795-0.883,3.366-1.898,4.59-3.129c3.389,3.682,6.541,7.594,9.837,11.346
	c2.123,2.417,4.691,5.911,7.841,7.52C60.358,166.258,59.694,167.573,58.925,168.798z M104.288,183.721
	c-1.295,0.994-2.802,1.788-4.099,2.756c-3.241-4.354-8.826-7.502-13.026-10.512c-5.901-4.231-11.636-8.678-17.47-12.989
	c0.355-3.772-4.986-5.348-7.001-2.347c-6.284-5.225-11.707-11.407-17.75-16.908c0.905-1.726,1.282-3.785,0.862-6.36
	c0.47-0.452,0.799-1.047,0.914-1.688c17.703,18.021,37.081,34.47,58.303,47.45C104.772,183.316,104.537,183.53,104.288,183.721z
	 M121.332,157.634c1.981,1.352,3.834,2.115,5.744,2.727c-0.643,0.965-1.237,2.029-1.961,3.025c-0.191,0.263-0.403,0.511-0.601,0.77
	c-1.856-3.307-4.245-6.44-7.036-9.403C118.715,155.776,120.01,156.732,121.332,157.634z M121.401,167.895
	c-1.491,1.644-3.054,3.23-4.629,4.783c-0.055-0.084-0.09-0.173-0.16-0.252c-7.8-8.772-19.473-15.172-28.563-22.73
	c-8.016-6.666-15.854-13.493-23.467-20.614c-12.103-11.321-23.946-27.106-38.229-35.632c-0.608-0.363-1.331,0.359-0.967,0.967
	c8.464,14.163,24.556,26.136,36.235,37.626c7.427,7.307,15.188,14.193,23.043,21.038c8.17,7.12,18.577,18.961,29.388,22.221
	c-2.013,1.911-4.097,3.756-6.237,5.536c-32.18-25.779-62.422-52.443-90.889-82.358c4.673-4.299,9.719-8.047,14.874-11.826
	c0.84-0.616,1.711-1.233,2.583-1.853c3.361,14.7,21.513,27.418,31.875,36.033C84.874,136.314,103.036,152.302,121.401,167.895z
	 M117.483,114.951c-4.276-3.334-9.904-5.496-14.285-8.725c-5.494-4.05-10.316-8.897-14.663-14.137
	c2.549-1.651,4.879-3.711,6.911-6.119c5.005,5.36,10.283,10.505,15.596,15.544c3.193,3.029,7.546,7.84,12.069,9.919
	C121.111,112.428,119.213,113.618,117.483,114.951z M127.845,109.578c-0.075-0.117-0.136-0.237-0.244-0.348
	c-4.29-4.46-10.501-7.623-15.262-11.699c-5.218-4.466-10.022-9.361-15.045-14.031c1.788-2.751,2.86-5.749,3.44-8.834
	c8.692,8.809,17.979,17.073,27.191,25.311c3.169,2.835,6.347,5.787,9.563,8.731C134.256,108.286,130.984,108.637,127.845,109.578z
	 M160.053,120.161c-8.638-8.68-19.394-15.833-28.882-23.431c-10.335-8.277-20.209-16.982-29.998-25.871
	c0.251-5.716-1.167-11.574-3.854-16.771c-0.13-0.251-0.314-0.494-0.455-0.744c9.245,8.042,18.834,15.735,27.661,24.541
	c8.897,8.875,18.461,17.074,27.092,26.217c3.341,3.54,6.616,8.399,10.923,10.838c0.694,0.393,1.361,0.406,1.94,0.209
	C162.94,116.789,161.442,118.452,160.053,120.161z M166.045,113.502c0.236-0.774,0.129-1.67-0.532-2.416
	c-11.264-10.761-21.796-22.233-33.314-32.829c-16.958-15.601-37.24-28.136-53.033-45.002c3.376-2.723,6.622-5.631,10.002-8.364
	c6.858,15.804,21.901,27.491,34.819,38.207c16.732,13.881,31.637,28.798,47.51,43.452c0.327,0.302,0.685,0.443,1.045,0.517
	C170.356,109.187,168.162,111.32,166.045,113.502z M175.039,104.627c-0.043-0.213-0.095-0.428-0.213-0.646
	c-8.53-15.838-25.68-27.308-39.603-38.126c-7.803-6.063-15.614-12.066-23.113-18.505c-3.627-3.114-7.031-6.443-10.397-9.832
	c-1.004-1.011-13.584-14.325-5.74-10.627c0.2,0.094,0.375-0.2,0.174-0.298c-4.324-2.098-3.044-1.598-5.826-2.608
	c2.217-1.74,4.486-3.411,6.943-4.832c11.812-6.831,28.247,14.649,36.237,25.164c-0.136,0.518,0.064,1.13,0.733,1.348
	c0.151,0.049,0.282,0.129,0.431,0.181c0.43,0.563,0.833,1.087,1.192,1.546c1.236,1.576,2.831,1.644,4.133,0.925
	c3.7,2.114,7.036,4.803,10.311,7.65c2.827,2.457,5.678,5.366,8.919,7.454c-0.464,0.759-0.683,1.644-0.583,2.483
	c-1.927,0.97-3.133,3.178-1.579,5.513c0.78,1.173,1.597,2.304,2.435,3.416c-5.457-4.704-11.055-9.23-16.467-13.765
	c-15.698-13.152-30.017-26.536-43.462-41.952c-0.837-0.961-2.199,0.261-1.678,1.295c7.493,14.885,21.869,26.322,34.1,37.193
	C147.98,71.82,163.3,86.183,178.295,101.4C177.226,102.476,176.142,103.551,175.039,104.627z"/>
</svg>
