<?xml version="1.0" encoding="utf-8"?>
<!-- Generator: Adobe Illustrator 18.1.0, SVG Export Plug-In . SVG Version: 6.00 Build 0)  -->
<svg version="1.1" id="Layer_1" xmlns="http://www.w3.org/2000/svg" xmlns:xlink="http://www.w3.org/1999/xlink" x="0px" y="0px"
	 viewBox="0 0 262.7 67.4" enable-background="new 0 0 262.7 67.4" xml:space="preserve">
<path d="M12.6,54c-0.7,0.1-1.6,0.3-2.3,0.3C5.1,54.7,0,51.4,0,49c0-0.9,0.4-1.2,1.3-1.2c3.2,0,3.9,2.9,6.7,4.8c1.3,0,2.8,0,4.2-0.4
	c19.6-6.4,33.3-24.4,46.1-40.1c5.7-7.6,5.8-8.6,6-8.6c2.2,0,1.9,3.5,1.5,4.8l-6.1,10.5c-9.6,15.6-12.6,22.9-13.3,25.5
	c0.3,0,1.8-2.2,2.6-3.4C60.2,27,69.3,11.2,84.7,0.5c1.8-0.9,3.7-1,3.9,2c1.2-1.6,1.5-2,1.9-2c1.8,0,1.6,3.6,1,4.7l-9.2,13.6
	C69.2,40.1,68.5,44.4,68.5,45.3c0,1.2-1.8,0.2-1.8,0.2c-0.1-0.4-0.1-1-0.1-1.5c0-10.4,15-31.8,20.6-39.6c0-1.3,0.1-3.4-1.8-2.2
	c-14.3,9.8-23.9,26-34.9,39.7c-2.8,3.5-4.4,5.3-5.5,5.3c-1,0-1.2-0.7-1.2-1.5c0-5.8,3.9-15,9.1-23.9C41.8,35.1,29.8,48.3,12.6,54z"
	/>
<path d="M103.2,34.1c0.4,0.3-0.7,2.5-1.8,3.8c-2.8,3.2-4.5,4.5-8,6.6c-3.2,1.8-11.7,6.1-13.4,0c-1.8-6.6,7.7-20.6,14-23.5
	c2.2-1.2,5.1-1.2,6.1,1.6c3.5,9.8-9.1,14.7-15.5,17.8c-0.6,0.1-1,0.3-1.6,0.4c-0.6,1.6-0.7,3.1-0.4,4.2c0.9,1.9,7.2-0.6,9.9-2.3
	c3.9-2.5,4.8-3.4,7.4-6C100.9,35.4,102.6,33.8,103.2,34.1z M84.1,38.5c6.7-2.8,16.1-7.6,14.3-14.6c-0.4-0.9-2,0-3.5,1.2
	C90.7,28,86.6,33.4,84.1,38.5z"/>
<path d="M101,44.5c0,1,0.6,1.2,1.2,1.2c2.6,0,10.5-6.3,10.5-6.6c0.1-0.1,1-0.3,1,0.1c0.1,0.9-1,1.8-1,1.8c-8,7-10.5,6.6-10.8,6.6
	c-3.5,0.1-3.2-3.2-3.2-3.2c0-11.2,25.4-41.6,26.3-41.6c0.6-0.6,1-0.7,1.3-0.7c1,0,1.3,1.5,1.3,2c0,1.3-0.7,2.5-0.7,2.5l-10.4,12.7
	C101.3,39.5,101,43.3,101,44.5z"/>
<path d="M125.8,20.4c0.7,0,1,0.3,1,0.9s-0.4,1.3-0.6,1.5c-11.7,16.1-12.7,20.7-12.7,20.7c-0.1,0.4-0.1,0.7-0.1,1
	c0,1,0.7,1.2,1.2,1.2c2.2,0.3,13.1-9.2,13.1-9.5c0.3-0.1,0.6-0.1,0.7-0.1s0.3,0.1,0.3,0.3c0,0.6-3.7,4.6-3.7,4.6
	c-7.6,6.7-10.5,6.7-10.8,6.7c-3.4-0.1-3.2-3.2-3.2-3.2c0-5.3,4.1-13,10.1-21.6C122.1,21.7,124.2,20.4,125.8,20.4z M126,15.6
	c0-2,2.3-5.3,3.9-5.3c0.6,0,1,0.4,1,1.3c0,2.3-2.3,5.3-3.8,5.3c-0.3,0-0.4,0-0.6-0.1C126.1,16.6,126,16.2,126,15.6z"/>
<path d="M121.5,39.7c0-2.6,2.2-5.3,5.3-5.3c0.6,0,1.5,0.1,2.2,0.4c1.9-2.5,4.1-4.5,9.3-13.1c0.1-0.1-0.9-2.2,2.2-1.6
	c3.5,0.7,5,15.9,1,21.9c2.2,0.1,7.9-5.8,8.3-5.8c0.1,0,1.5-0.1,1.5,0.1c0,0.6-6.4,7.5-9.9,7.5c-0.3,0-0.7,0-1-0.1
	c-3.7,3.9-6.1,3.6-9.1,3.8c-3.5,0.1-7-1.5-8.9-4.7C121.8,41.7,121.5,40.8,121.5,39.7z M126.9,36.2c-1.6,0-3.5,2-3.5,4.1
	c0,0.3,0,0.4,0.1,0.7c1-1.3,2.6-3.1,4.1-4.7C127.3,36.3,127.2,36.2,126.9,36.2z M123.8,41.9c1.2,2,4.7,3.6,7.6,3.6
	c2.8,0,4.7-1.3,5.8-3.1c-2.8-1.5-5.7-3.6-8-5.3C127.3,39.1,125.3,40.8,123.8,41.9z M130.5,35.7c2.6,1.8,5.4,3.9,7.9,5.1
	c2.6-4.5,1.9-16.2,0.7-16.4c-2.5,3.6-5.1,7.6-7.9,10.5C131,35.3,130.8,35.6,130.5,35.7z"/>
<path d="M143.4,39.7c0-2.6,2.2-5.3,5.3-5.3c0.6,0,1.5,0.1,2.2,0.4c1.9-2.5,4.1-4.5,9.3-13.1c0.1-0.1-0.9-2.2,2.2-1.6
	c3.5,0.7,5,15.9,1,21.9c2.2,0.1,5.7-1.6,6.1-1.6c0.1,0,0.1,0,0.1,0.1c0,0.6-2.9,3.2-6.4,3.2c-0.3,0-0.7,0-1-0.1
	c-3.7,3.9-6.1,3.6-9.1,3.8c-3.5,0.1-7-1.5-8.9-4.7C143.7,41.7,143.4,40.8,143.4,39.7z M148.8,36.2c-1.6,0-3.5,2-3.5,4.1
	c0,0.3,0,0.4,0.1,0.7c1-1.3,2.6-3.1,4.1-4.7C149.2,36.3,149.1,36.2,148.8,36.2z M145.7,41.9c1.2,2,4.7,3.6,7.6,3.6
	c2.8,0,4.7-1.3,5.8-3.1c-2.8-1.5-5.7-3.6-8-5.3C149.2,39.1,147.2,40.8,145.7,41.9z M152.4,35.7c2.6,1.8,5.4,3.9,7.9,5.1
	c2.6-4.5,1.9-16.2,0.7-16.4c-2.5,3.6-5.1,7.6-7.9,10.5C152.9,35.3,152.7,35.6,152.4,35.7z"/>
<path d="M183.2,44.3c0,1.2,0.7,1.3,1.2,1.3c2.5,0,10.2-6.7,11.4-6.7c0.1,0,0.3,0.1,0.3,0.3c0,0.6-1,1.8-1,1.8
	c-8.5,7.3-11,6.4-11,6.6c-3.1,0-3.2-3.2-3.2-3.2c0-1.6,0.1-2.9,0.9-5.1v0.1c-3.2,3.1-9.5,6.9-9.5,6.9c-1.5,0.9-2.5,1-3.4,1
	c-2.8,0-2.9-2.6-2.9-3.9c0-5.1,5.3-11.7,5.3-11.7c8.2-10.1,12.6-10.8,12.6-10.8c2.9-1.3,5.8,0.9,5.1,5c1.5-2.2,3.4-5.4,6.7-5.4
	c0.9,0,1,0.4,1,0.9c0,0.6-0.3,1.3-0.4,1.5C183.7,39.7,183.2,43.2,183.2,44.3z M187.3,27.3c0-1.3-0.1-3.4-1.6-3.4
	c-2.5,0-9.1,7.6-10.8,9.5c0,0-6.1,6.4-6.1,10.7c0,0.3,0,0.9,0.4,1c0.4,0.1,1.8-0.3,4.5-2C174.3,42.6,187.3,34.3,187.3,27.3z"/>
<g>
	<g>
		<path d="M72.6,27.5c-3.3,6.4-8.1,15.6-6.5,23c1.3,6.3,7.7,10.3,13.2,12.6c15.7,6.6,35,2.8,50.6-2.2c9-2.9,18-6.5,27.4-7.7
			c10.3-1.3,20.1,1.3,30.1,3.5c17.8,4.1,36.1,4.4,53.8-0.6c7.1-2,15.1-5.1,19.2-11.7c3-4.9,3-11.3-1.7-14.9c-1.3-1-2.5,1.2-1.3,2.2
			c5.2,4,1.8,11.2-1.9,14.7c-3.5,3.3-8.2,5.3-12.7,6.7c-9,2.8-18.6,4.3-28,4.4c-10.4,0.2-20.3-1.6-30.3-3.9
			c-8.7-2-17.5-3.9-26.4-2.9c-8.8,1-17.1,4-25.4,6.8c-9.5,3.2-19.1,5.7-29.2,6.3c-9.1,0.6-18.8,0-26.8-4.6c-6.3-3.7-9.3-8.5-7.5-16
			c1.2-5,3.3-9.8,5.6-14.3C75.5,27.3,73.3,26.1,72.6,27.5L72.6,27.5z"/>
	</g>
</g>
</svg>
